<svg viewBox="0 0 22 20" fill="none" xmlns="http://www.w3.org/2000/svg">
  <path d="M22 10.5v5a1 1 0 0 1-1 1h-1a3 3 0 0 1-6 0H8a3 3 0 1 1-6 0H1a1 1 0 0 1-1-1v-12a3 3 0 0 1 3-3h9a3 3 0 0 1 3 3v2h2a3 3 0 0 1 2.4 1.2l2.4 3.2c.03.044.053.09.07.14l.06.11c.044.112.068.23.07.35Zm-16 6a1 1 0 1 0-2 0 1 1 0 0 0 2 0Zm7-13a1 1 0 0 0-1-1H3a1 1 0 0 0-1 1v11h.78a3 3 0 0 1 4.44 0H13v-11Zm2 6h4l-1.2-1.6a1 1 0 0 0-.8-.4h-2v2Zm3 7a1 1 0 1 0-1.999 0 1 1 0 0 0 1.999 0Zm2-5h-5v2.78a3 3 0 0 1 4.22.22H20v-3Z" fill="#333"/>
</svg>