<svg viewBox="0 0 49 28" fill="none" xmlns="http://www.w3.org/2000/svg">
  <path d="M48.467 19.165 43.805 3.284a.957.957 0 0 0-1.149-.66l-5.82 1.473c-.756.21-.833.958-.565 1.608-4.604.067-8.453-5.035-13.182-3.58l-3.092.833-7.447.316c.287-.622.2-1.378-.546-1.59L6.261.106a.957.957 0 0 0-1.159.632L.546 15.202a.957.957 0 0 0 .66 1.215l5.744 1.57a.957.957 0 0 0 1.1-.555c2.135 2.872 4.49 5.83 7.592 7.754l3.293 2.163a3.504 3.504 0 0 0 5.236-1.77 3.22 3.22 0 0 0 4.102-.14c.371-.329.661-.74.847-1.2a3.38 3.38 0 0 0 4.93-2.02 3.32 3.32 0 0 0 4.432-1.82l1.972-.325.316 1.101a.958.958 0 0 0 1.159.651l5.81-1.474a.96.96 0 0 0 .751-.801.957.957 0 0 0-.023-.386ZM2.623 14.828 6.605 2.192l3.944 1.072L6.557 15.9l-3.934-1.072Zm33.859 5.323a1.503 1.503 0 0 1-1.972.143l-3.734-2.958a.957.957 0 1 0-1.187 1.503l2.183 1.723c1.474 1.293-.632 3.044-1.915 1.915l-3.609-3.188a.96.96 0 1 0-1.263 1.446l2.058 1.809c1.158 1.1-.69 2.48-1.723 1.57l-3.762-3.16a.958.958 0 0 0-.9-.162.898.898 0 0 0-.546.46.957.957 0 0 0 .22 1.168l1.724 1.454c1.215 1.302-.785 2.872-2.049 1.915l-3.293-2.163c-3.216-1.915-5.744-5.438-7.926-8.357l3.168-10.052 6.27-.23L15.203 9.2c-2.288 3.34 2.507 6.7 5.197 3.963l1.398-1.398a4.336 4.336 0 0 1 5.638-.306l8.893 7.045a1.1 1.1 0 0 1 .154 1.647Zm2.058-1.685a3.014 3.014 0 0 0-1.015-1.455l-8.893-7.055a6.28 6.28 0 0 0-8.185.45l-1.407 1.407c-1.005 1.1-3.226-.096-2.288-1.503l3.973-5.562 2.872-.775c2.604-.852 5.37 1.36 7.658 2.345a12.444 12.444 0 0 0 5.629 1.33l3.101 10.53-1.445.288Zm3.829 1.292L38.253 5.715l3.953-.957L46.332 18.8l-3.963.957Z" fill="#000"/>
</svg>