<svg viewBox="0 0 70 47" fill="none" xmlns="http://www.w3.org/2000/svg">
  <g fill="#333">
    <path d="M9.826 1.32h.638v9.71H8.507V5.942L6.102 8.95h-.638L3.058 5.943v5.086H1.102V1.32h.637l4.044 5.159L9.826 1.32ZM17.433 3.877h2.058l-3.435 7.774c-.329.741-.72 1.285-1.174 1.632-.454.347-1.014.52-1.681.52a4.9 4.9 0 0 1-1.261-.173v-1.633c.396.039.676.058.84.058.368 0 .667-.072.9-.217.231-.144.43-.395.593-.751l.218-.491-2.754-6.719h2.073l1.753 4.696 1.87-4.696ZM25.035 3.877v1.72h-.521c-.6 0-1.073.158-1.42.476-.339.318-.508.78-.508 1.387v3.57H20.63V3.876h1.797v.853c.502-.627 1.16-.94 1.97-.94.242 0 .455.03.639.087ZM25.701 7.446c-.02-1.021.353-1.902 1.116-2.644.763-.742 1.672-1.103 2.725-1.084 1.053-.02 1.961.342 2.724 1.084.773.742 1.15 1.623 1.13 2.644.02 1.021-.357 1.907-1.13 2.659-.772.741-1.686 1.102-2.739 1.083-1.053.02-1.961-.342-2.724-1.084-.754-.75-1.121-1.637-1.102-2.658Zm5.16 1.401c.357-.366.536-.828.536-1.387 0-.558-.179-1.026-.536-1.401-.348-.376-.788-.564-1.32-.564-.54 0-.985.188-1.333.564-.347.366-.521.833-.521 1.401 0 .559.174 1.021.521 1.387.348.366.793.55 1.334.55.531 0 .97-.184 1.319-.55ZM34.272 9.816l.986-1.185c.618.645 1.29.968 2.014.968.27 0 .488-.048.652-.145a.498.498 0 0 0 .261-.448.385.385 0 0 0-.16-.332c-.096-.087-.289-.193-.579-.318l-.768-.318c-.686-.279-1.184-.582-1.493-.91-.309-.337-.464-.76-.464-1.271 0-.665.242-1.185.725-1.56.483-.386 1.12-.579 1.913-.579 1.063 0 1.923.357 2.58 1.07l-.986 1.199c-.483-.453-1.019-.68-1.608-.68-.512 0-.768.17-.768.506a.41.41 0 0 0 .159.333c.106.086.304.187.594.303l.696.289c.715.289 1.227.597 1.536.925.319.327.478.746.478 1.257 0 .712-.265 1.271-.797 1.676-.522.404-1.188.607-2 .607-1.285 0-2.275-.463-2.97-1.387ZM41.52 11.03V.192h1.956v10.836H41.52ZM51.426 6.781v4.248H49.63v-.693c-.56.578-1.29.867-2.188.867-.754 0-1.358-.198-1.812-.593-.444-.395-.666-.91-.666-1.546 0-.645.241-1.15.724-1.517.493-.376 1.155-.563 1.986-.563h1.797v-.318c0-.405-.116-.713-.348-.925-.222-.222-.55-.332-.986-.332-.357 0-.68.077-.97.23-.29.155-.6.405-.928.752l-1.015-1.2c.831-.982 1.875-1.473 3.13-1.473.948 0 1.697.27 2.247.81.55.53.826 1.28.826 2.253ZM49.47 8.356V8.27h-1.536c-.667 0-1 .241-1 .723 0 .24.091.433.275.578.193.135.444.202.753.202.435 0 .793-.13 1.073-.39.29-.27.435-.612.435-1.026ZM57.91 3.877h2.073l-3.551 7.326h-.652l-3.551-7.326h2.058l1.812 4.046 1.811-4.046ZM66.853 6.781v4.248h-1.797v-.693c-.56.578-1.29.867-2.188.867-.754 0-1.358-.198-1.812-.593-.444-.395-.667-.91-.667-1.546 0-.645.242-1.15.725-1.517.493-.376 1.155-.563 1.986-.563h1.797v-.318c0-.405-.116-.713-.348-.925-.222-.222-.55-.332-.986-.332-.357 0-.68.077-.97.23-.29.155-.6.405-.928.752l-1.015-1.2c.831-.982 1.875-1.473 3.13-1.473.948 0 1.696.27 2.247.81.55.53.826 1.28.826 2.253Zm-1.956 1.575V8.27H63.36c-.666 0-1 .241-1 .723 0 .24.092.433.276.578.193.135.444.202.753.202.435 0 .793-.13 1.073-.39.29-.27.435-.612.435-1.026Z"/>
  </g>
  <g fill="#333">
    <path d="M35.725 41.853V34.08h-3.058v-1.763h8.087v1.763H37.68v7.773h-1.956ZM47.46 38.935h-5.03c.116.452.348.804.696 1.054.358.241.797.361 1.319.361.705 0 1.372-.24 2-.722l.812 1.33c-.86.712-1.817 1.069-2.87 1.069-1.102.019-2.039-.337-2.812-1.07-.763-.741-1.135-1.632-1.116-2.673-.019-1.03.343-1.916 1.087-2.658s1.633-1.103 2.667-1.084c.986 0 1.792.318 2.42.954.638.636.957 1.425.957 2.37 0 .346-.044.703-.13 1.069Zm-5.03-1.373h3.261c-.01-.433-.164-.78-.464-1.04-.29-.27-.652-.405-1.086-.405-.416 0-.778.13-1.087.39-.31.26-.517.612-.624 1.055ZM55.131 37.605v4.248h-1.797v-.693c-.56.578-1.29.867-2.189.867-.753 0-1.357-.198-1.811-.593-.445-.395-.667-.91-.667-1.546 0-.645.242-1.15.725-1.517.493-.376 1.154-.563 1.985-.563h1.797v-.318c0-.405-.115-.713-.347-.925-.223-.222-.551-.332-.986-.332-.357 0-.681.077-.97.23-.29.155-.6.405-.928.752l-1.015-1.2c.831-.982 1.875-1.473 3.13-1.473.947 0 1.696.27 2.247.81.55.53.826 1.28.826 2.253Zm-1.957 1.575v-.087h-1.536c-.666 0-1 .241-1 .723 0 .24.092.433.276.578.193.135.444.202.753.202.435 0 .792-.13 1.073-.39.29-.27.434-.612.434-1.026ZM68.072 37.417v4.436h-1.957v-4.161c0-.424-.116-.761-.347-1.011-.232-.25-.542-.376-.928-.376s-.705.125-.957.376c-.241.25-.362.573-.362.968v4.204h-1.956v-4.161c0-.424-.116-.761-.348-1.011-.232-.25-.541-.376-.928-.376-.396 0-.715.125-.956.376-.242.25-.363.587-.363 1.011v4.161h-1.956v-7.152h1.797v.636c.502-.53 1.179-.795 2.029-.795.937 0 1.647.342 2.13 1.026.61-.684 1.406-1.026 2.392-1.026.83 0 1.488.26 1.97.78.494.52.74 1.219.74 2.095Z"/>
  </g>
  <g fill="#333">
    <path d="M24.077 23.638c0 .819-.295 1.493-.884 2.023-.59.52-1.343.78-2.26.78H16.67v-9.536h3.392c.889 0 1.613.25 2.174.751.57.492.855 1.127.855 1.908 0 .703-.237 1.276-.71 1.72 1.13.413 1.695 1.198 1.695 2.354Zm-4.174-5.057h-1.348v2.182h1.348c.396 0 .7-.096.913-.29.223-.192.334-.461.334-.808 0-.337-.111-.602-.334-.795-.212-.193-.517-.289-.913-.289Zm2.247 4.985c0-.366-.121-.655-.363-.867-.241-.222-.575-.332-1-.332h-2.232v2.398h2.232c.425 0 .759-.106 1-.318.242-.212.363-.505.363-.881ZM31.557 22.193v4.248H29.76v-.693c-.56.578-1.29.867-2.189.867-.753 0-1.357-.198-1.811-.593-.445-.395-.667-.91-.667-1.546 0-.645.242-1.15.725-1.517.492-.376 1.154-.563 1.985-.563H29.6v-.318c0-.405-.116-.713-.348-.925-.222-.221-.55-.332-.985-.332-.357 0-.681.077-.971.23-.29.155-.6.405-.928.752l-1.014-1.199c.83-.982 1.874-1.474 3.13-1.474.947 0 1.696.27 2.247.81.55.53.826 1.28.826 2.253ZM29.6 23.768v-.087h-1.536c-.667 0-1 .241-1 .723 0 .24.092.433.275.578.194.135.445.202.754.202.435 0 .792-.13 1.073-.39.29-.27.434-.612.434-1.026ZM33.44 26.441V19.29h1.956v7.152H33.44Zm-.276-9.753c0-.346.121-.635.363-.867a1.23 1.23 0 0 1 .884-.346c.348 0 .642.115.884.346.251.232.377.52.377.867 0 .338-.126.622-.377.853a1.23 1.23 0 0 1-.884.347 1.23 1.23 0 0 1-.884-.347 1.133 1.133 0 0 1-.363-.853ZM37.26 23.291V19.29h1.956v4.161c0 .415.126.747.377.997.26.25.59.376.985.376.387 0 .705-.125.957-.376.25-.26.377-.592.377-.997v-4.16h1.956v4.001c0 .983-.314 1.782-.942 2.399-.618.616-1.4.925-2.348.925-.966 0-1.763-.304-2.391-.91-.618-.617-.928-1.421-.928-2.414ZM52.333 22.006v4.435h-1.942v-4.175c0-.415-.126-.747-.377-.997-.241-.26-.56-.39-.956-.39-.397 0-.725.13-.986.39-.251.25-.377.582-.377.997v4.175H45.74V19.29h1.797v.65c.54-.54 1.241-.809 2.101-.809.831 0 1.488.26 1.971.78.483.52.725 1.219.725 2.096Z"/>
  </g>
  <path d="M29.59 41.998c-9.349 2.697-18.672-2.986-28.02-.29-.266.073-.483-.072-.483-.337v-3.37c9.662-3.083 19.324 3.082 28.985 0v3.37a.697.697 0 0 1-.483.627Z" fill="#EAD053"/>
  <path d="M30.072 38c-9.661 3.083-19.323-3.082-28.985 0V34.63c0-.265.217-.554.483-.626 9.348-2.698 18.671 2.986 28.02.289.265-.073.482.072.482.337V38Z" fill="#61B9E5"/>
</svg>